<svg xmlns="http://www.w3.org/2000/svg" width="54.786" height="70" viewBox="0 0 54.786 70">
  <g id="Group_29" data-name="Group 29" transform="translate(-8.064 -0.5)">
    <g id="Group_24" data-name="Group 24">
      <g id="Group_23" data-name="Group 23">
        <path id="Path_41" data-name="Path 41" d="M31.5,55.2a8.8,8.8,0,0,1-12.9-.9L14,64.4a.8.8,0,0,0,.1.9.956.956,0,0,0,.9.3l3.3-.9a5.16,5.16,0,0,1,1.1-.2,4.178,4.178,0,0,1,3.8,2.4L24.7,70a.755.755,0,0,0,.8.5.917.917,0,0,0,.8-.5l7.3-16A5.659,5.659,0,0,0,31.5,55.2Z" fill="#264295"/>
      </g>
    </g>
    <g id="Group_26" data-name="Group 26">
      <g id="Group_25" data-name="Group 25">
        <path id="Path_42" data-name="Path 42" d="M56.9,64.4,52.3,54.3a8.8,8.8,0,0,1-12.9.9A4.768,4.768,0,0,0,37.2,54l7.3,16a.89.89,0,0,0,1.6,0l1.5-3.1a4.178,4.178,0,0,1,3.8-2.4,3.6,3.6,0,0,1,1.1.2l3.3.9a.777.777,0,0,0,.9-.3A.694.694,0,0,0,56.9,64.4Z" fill="#264295"/>
      </g>
    </g>
    <g id="Group_28" data-name="Group 28">
      <g id="Group_27" data-name="Group 27">
        <path id="Path_43" data-name="Path 43" d="M60.5,28.9a8.853,8.853,0,0,1-2.7-11.7,5.292,5.292,0,0,0-.5-6.2,5.428,5.428,0,0,0-5.9-1.8A8.869,8.869,0,0,1,40.6,4,5.466,5.466,0,0,0,30.4,4,8.776,8.776,0,0,1,19.6,9.2,5.428,5.428,0,0,0,13.7,11a5.638,5.638,0,0,0-.5,6.2,8.853,8.853,0,0,1-2.7,11.7,5.468,5.468,0,0,0-2.3,5.8,5.326,5.326,0,0,0,4.5,4.2,8.954,8.954,0,0,1,7.5,9.4,5.491,5.491,0,0,0,3.1,5.4,5.3,5.3,0,0,0,6.1-.9,8.539,8.539,0,0,1,6-2.3,9.009,9.009,0,0,1,6,2.3,5.3,5.3,0,0,0,6.1.9,5.491,5.491,0,0,0,3.1-5.4,8.954,8.954,0,0,1,7.5-9.4,5.326,5.326,0,0,0,4.5-4.2A5.028,5.028,0,0,0,60.5,28.9Zm-25,17.5a18,18,0,1,1,18-18A18.053,18.053,0,0,1,35.5,46.4Z" fill="#264295"/>
      </g>
    </g>
    <path id="Path_44" data-name="Path 44" d="M35.5,44A15.55,15.55,0,1,1,51,28.5,15.578,15.578,0,0,1,35.5,44Z" fill="#ec1b25"/>
    <path id="Path_45" data-name="Path 45" d="M44.5,26.6l-11,8.1a2.45,2.45,0,0,1-1.2.4h-.4a2.223,2.223,0,0,1-1.3-.8l-3.3-4.7a2.011,2.011,0,0,1,3.3-2.3l2.1,3L42,23.5a1.976,1.976,0,0,1,2.8.5A1.666,1.666,0,0,1,44.5,26.6Z" fill="#fff"/>
  </g>
</svg>
