<svg xmlns="http://www.w3.org/2000/svg" width="70" height="70" viewBox="0 0 70 70">
  <g id="Group_46" data-name="Group 46" transform="translate(-0.5 -0.5)">
    <g id="Group_44" data-name="Group 44">
      <path id="Path_54" data-name="Path 54" d="M67,4H56.5V.5h-42V4H4A3.307,3.307,0,0,0,.5,7.5v8.4a15.967,15.967,0,0,0,14,15.8V32A21.224,21.224,0,0,0,31,52.7L28.5,60H20.4a3.193,3.193,0,0,0-3.1,2.5l-2.8,8h42l-2.8-8A3.3,3.3,0,0,0,50.5,60h-8L40,52.6A21.058,21.058,0,0,0,56.5,31.9v-.3a15.811,15.811,0,0,0,14-15.8V7.5A3.307,3.307,0,0,0,67,4ZM14.5,24.6a9.323,9.323,0,0,1-7-8.8V11h7Zm28,10.9-7-3.9-7,3.9,1.8-7-5.2-7h7.4l3.1-7,3.2,7H46l-5.3,7Zm21-19.6a9.142,9.142,0,0,1-7,8.8V11h7Z" fill="#ec1b25"/>
    </g>
    <g id="Group_45" data-name="Group 45">
      <circle id="Ellipse_1" data-name="Ellipse 1" cx="14.1" cy="14.1" r="14.1" transform="translate(21.4 11.2)" fill="#fff"/>
    </g>
    <path id="Path_55" data-name="Path 55" d="M42.5,35.5l-7-3.9-7,3.9,1.8-7-5.3-7h7.4l3.1-7,3.2,7H46l-5.2,7Z" fill="#264295"/>
  </g>
</svg>
