<svg xmlns="http://www.w3.org/2000/svg" width="70" height="69.9" viewBox="0 0 70 69.9">
  <g id="Group_22" data-name="Group 22" transform="translate(-0.5 -0.5)">
    <path id="Path_35" data-name="Path 35" d="M.5,31.8s2.2,4,7,0L36.1,7.6l26.8,24c5.5,4,7.6,0,7.6,0L36.1.5Z" fill="#ec1b25"/>
    <path id="Path_36" data-name="Path 36" d="M62.2,7.6H55.3l.1,8.3,6.8,5.9Z" fill="#ec1b25"/>
    <path id="Path_37" data-name="Path 37" d="M24.1,41.1a14.455,14.455,0,0,0,2.9-.4l5.5,5.5,6-6L33,34.7a9.283,9.283,0,0,0-8.9-12.1,9.021,9.021,0,0,0-4,.9,1,1,0,0,0-.4.5.735.735,0,0,0,.2.6l5.8,5.8a2.36,2.36,0,0,1,.7,1.6,1.99,1.99,0,0,1-.7,1.6,2.233,2.233,0,0,1-3.2,0l-5.8-5.8a1.072,1.072,0,0,0-.6-.2.664.664,0,0,0-.5.4,9.288,9.288,0,0,0,1.8,10.6A10.3,10.3,0,0,0,24.1,41.1Z" fill="#ec1b25"/>
    <path id="Path_38" data-name="Path 38" d="M53.5,51.9a14.455,14.455,0,0,0-2.9.4l-6.1-6.1-6,6,6.1,6.1A9.325,9.325,0,0,0,57.5,69.5a1,1,0,0,0,.4-.5.735.735,0,0,0-.2-.6l-5.8-5.8a2.36,2.36,0,0,1-.7-1.6,1.99,1.99,0,0,1,.7-1.6,2.234,2.234,0,0,1,3.2,0l5.8,5.8a1.072,1.072,0,0,0,.6.2A.664.664,0,0,0,62,65a9.288,9.288,0,0,0-1.8-10.6A10.3,10.3,0,0,0,53.5,51.9Z" fill="#ec1b25"/>
    <path id="Path_39" data-name="Path 39" d="M51,38.1s1,.9,1.8.5c.9-.5,3.6,2.1,4.4,2.7h0l-.5.5A1.556,1.556,0,1,0,58.9,44l3.6-3.6a1.556,1.556,0,1,0-2.2-2.2l-.6.6c-.5-.7-1.3-1.9-1.2-2.3.4-1.7-3.1-5.8-3.1-5.8-8.7-8.7-14.5-8.5-17.2-7.5-1.1.4-.9.6.2.8,8.4,1.5,9.4,6.4,8,8.3-.5.7.3,1.6.3,1.6l.3.3L33,48.4a1,1,0,0,1,.5.4l2.4,2.4a1.756,1.756,0,0,1,.4.5L50.4,37.6Z" fill="#264295"/>
    <path id="Path_40" data-name="Path 40" d="M32.6,49.7a1.52,1.52,0,0,0-2-.1L14.9,63.8a1.192,1.192,0,0,0-.1,1.8l4.3,4.3a1.192,1.192,0,0,0,1.8-.1L35,54.1a1.422,1.422,0,0,0-.1-2Z" fill="#264295"/>
  </g>
</svg>
