<svg xmlns="http://www.w3.org/2000/svg" width="70" height="70.1" viewBox="0 0 70 70.1">
  <g id="Group_43" data-name="Group 43" transform="translate(-0.5 -0.5)">
    <g id="Group_31" data-name="Group 31">
      <g id="Group_30" data-name="Group 30">
        <path id="Path_46" data-name="Path 46" d="M53.8,12.5A5.816,5.816,0,0,0,52,8.2L46.2,2.4A6.465,6.465,0,0,0,41.8.6h-.4V12.9H53.7l.1-.4Z" fill="#ec1b25"/>
      </g>
    </g>
    <g id="Group_33" data-name="Group 33">
      <g id="Group_32" data-name="Group 32">
        <path id="Path_47" data-name="Path 47" d="M38,42.8a8.251,8.251,0,0,1,2-3.2L53.9,25.8V16.9H39.4a2.03,2.03,0,0,1-2-2.1V.5H6.7A6.231,6.231,0,0,0,.5,6.7V64.4a6.231,6.231,0,0,0,6.2,6.2H47.6a6.231,6.231,0,0,0,6.2-6.2V49l-2.3,2.2a8.251,8.251,0,0,1-3.2,2l-6.5,2.2-1,.1a5.4,5.4,0,0,1-4.2-2.1,5.053,5.053,0,0,1-.7-4.6ZM10.8,37.4H31.2a2.1,2.1,0,1,1,0,4.2H10.8a2.112,2.112,0,0,1-2.1-2.1A2.051,2.051,0,0,1,10.8,37.4ZM8.7,31.3a2.112,2.112,0,0,1,2.1-2.1H31.2a2.1,2.1,0,1,1,0,4.2H10.8A2.18,2.18,0,0,1,8.7,31.3Zm0,16.4a2.112,2.112,0,0,1,2.1-2.1H31.2a2.1,2.1,0,1,1,0,4.2H10.8A2.18,2.18,0,0,1,8.7,47.7ZM39.4,57.9a2.1,2.1,0,0,1,0,4.2H27.1A2.258,2.258,0,0,1,25,60a2.112,2.112,0,0,1,2.1-2.1ZM10.8,25.1A2.112,2.112,0,0,1,8.7,23a1.97,1.97,0,0,1,2.1-2H39.4a2.112,2.112,0,0,1,2.1,2.1,2.051,2.051,0,0,1-2.1,2.1H10.8Z" fill="#264295"/>
      </g>
    </g>
    <g id="Group_35" data-name="Group 35">
      <g id="Group_34" data-name="Group 34">
        <path id="Path_48" data-name="Path 48" d="M41.7,44.6,39.9,50a1.016,1.016,0,0,0,1.3,1.3l5.3-1.8Z" fill="#ec1b25"/>
      </g>
    </g>
    <g id="Group_37" data-name="Group 37">
      <g id="Group_36" data-name="Group 36">
        <path id="Path_49" data-name="Path 49" d="M57.6,27.7,44.1,41.3l5.8,5.8L63.4,33.6Z" fill="#ec1b25"/>
      </g>
    </g>
    <g id="Group_39" data-name="Group 39">
      <g id="Group_38" data-name="Group 38">
        <path id="Path_50" data-name="Path 50" d="M69.3,21.9a4.373,4.373,0,0,0-5.8,0l-3,3,5.8,5.8,3-3A4.1,4.1,0,0,0,69.3,21.9Z" fill="#ec1b25"/>
      </g>
    </g>
    <g id="Group_42" data-name="Group 42">
      <g id="Group_41" data-name="Group 41">
        <g id="Group_40" data-name="Group 40">
          <path id="Path_51" data-name="Path 51" d="M69.3,27.7Z"/>
          <path id="Path_52" data-name="Path 52" d="M69.3,27.7Z"/>
          <path id="Path_53" data-name="Path 53" d="M69.3,27.7Z"/>
        </g>
      </g>
    </g>
  </g>
</svg>
