<svg xmlns="http://www.w3.org/2000/svg" width="125.636" height="70.677" viewBox="0 0 125.636 70.677">
  <path id="Path_63" data-name="Path 63" d="M313.877,570.744a9.247,9.247,0,0,0-.424-2.749q-5.184-16.2-10.435-32.375c-.9-2.783-2-3.568-4.913-3.568q-11.9,0-23.8.008H204.886c-2.9,0-3.943.75-4.882,3.455q-5.616,16.184-11.212,32.376a9.413,9.413,0,0,0-.5,2.97c-.037,9.69-.023,19.374-.021,29.069,0,2.246.55,2.787,2.835,2.787h59.854v.011h60.223c2.13,0,2.719-.614,2.719-2.8C313.9,590.2,313.908,580.474,313.877,570.744ZM286.95,536.529c1.946,4.371,5.778,5.818,10.127,6.319,1.131.13,1.673.407,1.98,1.578,1.315,4.967,2.755,9.9,4.145,14.849.086.306.13.624.161.768a58.329,58.329,0,0,0-6.353,1.765,4.773,4.773,0,0,0-3.357,5.067H255.8c2.239-.693,5.032-1.4,7.7-2.442a18.121,18.121,0,0,0,4.5-2.687,11.181,11.181,0,0,0,2.667-15.6c-3.253-5.139-8.167-7.839-13.955-9.163a7.929,7.929,0,0,1-1.523-.445Zm-37.825,6.324c-.141-1.151.494-1.536,1.54-1.488.366.017.735-.017,1.1,0,1.994.059,2.243-.409,2.492,2.162l5.264.884c-.256.741-.451,1.259-.614,1.786-.283.906-.778,1.068-1.752.95-2.2-.266-4.441-.291-6.665-.387a1.257,1.257,0,0,0-.8.262c-.318.269-.755.633-.762.967a1.305,1.305,0,0,0,.721.973c1.335.488,2.721.831,4.074,1.273,1.739.566,3.51,1.063,5.184,1.783a3.439,3.439,0,0,1-.089,6.459c-1.471.665-3.05,1.089-4.728,1.667-.3,2.6-.3,2.6-3.06,2.574h-.858c-1.556-.03-1.765-.238-1.789-1.752,0-.2-.02-.4-.031-.659l-6.93-1.051a10,10,0,0,1,1.236-2.444,2.452,2.452,0,0,1,1.725-.334c2.311.168,4.613.458,6.93.619a3.974,3.974,0,0,0,1.9-.348,2.164,2.164,0,0,0,1.177-1.2c.066-.328-.549-.99-1-1.186a24.656,24.656,0,0,0-3.015-.966c-1.83-.552-3.7-1-5.483-1.676a3.219,3.219,0,0,1-2.451-2.906,3.586,3.586,0,0,1,2.182-3.417,16.431,16.431,0,0,1,3.418-1.273C248.791,543.916,249.225,543.7,249.125,542.854ZM200.637,554.5c1.011-3.315,2.107-6.607,3.018-9.949a1.925,1.925,0,0,1,2.121-1.731,11.983,11.983,0,0,0,7.246-2.638,35.327,35.327,0,0,0,3.359-3.667h31.189a72.29,72.29,0,0,0-7.1,2.461,18.141,18.141,0,0,0-9.32,8.836,10.933,10.933,0,0,0,3.373,14.094,24.283,24.283,0,0,0,12.038,4.754,1.025,1.025,0,0,1,.58.2H208.623a4.7,4.7,0,0,0-1.608-3.971,11.29,11.29,0,0,0-6.074-2.36c-.6-.082-1.215-.078-2.07-.129.625-2.093,1.182-4,1.764-5.9Zm-8.375,16.9H309.914v3.779H192.259Zm117.672,7.864v3.739H192.262v-3.739Zm-117.675,7.845H309.867v3.779H192.255ZM309.935,598.7H192.275v-3.725H309.935Z" transform="translate(-188.264 -532.052)" fill="#e30f1b"/>
</svg>
